<svg xmlns="http://www.w3.org/2000/svg" xmlns:xlink="http://www.w3.org/1999/xlink" viewBox="0 0 85 58.438" fill="#fff" fill-rule="evenodd" stroke="#000" stroke-linecap="round" stroke-linejoin="round"><use xlink:href="#A" x="2.5" y="1.719"/><symbol id="A" overflow="visible"><g stroke="none"><path d="M80 37.104v3.806C80 47.842 72.757 55 63.845 55h-47.68C7.254 55 .011 47.842.011 40.91v-3.806z" fill="#9d5125"/><path d="M30.799 0c8.029-.014 15.322 4.915 18.641 12.599 3.116-2.238 7.141-2.522 10.513-.741s5.558 5.345 5.709 9.307C73.722 21.869 80 30.041 80 36.532v1.408c0 6.979-7.243 14.054-16.188 14.054H16.166C7.243 51.994 0 44.919 0 37.939v-1.396c0-5.381 4.303-12.778 10.353-14.615v-.608c.021-5.677 2.187-11.112 6.021-15.11S25.397-.022 30.799 0z" fill="#f58535"/><path d="M20.048 24.947l-5.347 19.626h3.133l1.203-4.772h5.506l1.135 4.772h3.133l-4.916-19.626zm-.477 12.312l2.27-9.699h0l2.157 9.676zm22.694 3.019h-.045l-2.532-15.331h-3.156l-2.475 15.247H34l-2.464-15.247h-3.031l3.621 19.626h3.485l2.395-14.782h.057l2.418 14.782h3.474l3.735-19.626h-2.974l-2.452 15.331zm15.087-6.419l-2.032-.775c-1.987-.752-2.827-1.646-2.827-3.329a2.6 2.6 0 0 1 .628-2.036c.487-.546 1.181-.837 1.892-.792.737-.104 1.477.164 1.996.724s.755 1.344.637 2.116v.417h3.008v-.441c0-2.028-.5-5.166-5.313-5.166-3.531 0-5.847 1.98-5.847 5.56 0 2.804 1.135 4.283 3.917 5.381l2.055.752c1.623.234 2.8 1.742 2.702 3.46.021.789-.277 1.551-.82 2.097s-1.28.824-2.03.767c-2.078 0-3.077-1.193-3.077-3.579v-.501h-2.997v.465c0 2.744 1.056 5.965 5.676 5.965 3.792 0 6.221-1.73 6.221-5.906.034-2.684-1.135-4.2-3.792-5.178z"/></g></symbol></svg>