<?xml version="1.0" encoding="UTF-8" standalone="no" ?>
<!DOCTYPE svg PUBLIC "-//W3C//DTD SVG 1.1//EN" "http://www.w3.org/Graphics/SVG/1.1/DTD/svg11.dtd">
<svg xmlns="http://www.w3.org/2000/svg" xmlns:xlink="http://www.w3.org/1999/xlink" version="1.1" width="1080" height="1080" viewBox="0 0 1080 1080" xml:space="preserve">
<desc>Created with Fabric.js 5.2.4</desc>
<defs>
</defs>
<rect x="0" y="0" width="100%" height="100%" fill="transparent"></rect>
<g transform="matrix(1 0 0 1 540 540)" id="6ee7fe5a-6e95-475e-8920-73c97a899600"  >
<rect style="stroke: none; stroke-width: 1; stroke-dasharray: none; stroke-linecap: butt; stroke-dashoffset: 0; stroke-linejoin: miter; stroke-miterlimit: 4; fill: rgb(255,255,255); fill-rule: nonzero; opacity: 1;" vector-effect="non-scaling-stroke"  x="-540" y="-540" rx="0" ry="0" width="1080" height="1080" />
</g>
<g transform="matrix(1 0 0 1 540 540)" id="e3b973da-e663-4fb9-b8f4-6664c3b3e1f3"  >
</g>
<g transform="matrix(1.99 0 0 1.44 540.85 507.29)"  >
<path style="stroke: rgb(66,53,53); stroke-width: 3; stroke-dasharray: none; stroke-linecap: butt; stroke-dashoffset: 0; stroke-linejoin: miter; stroke-miterlimit: 4; fill: rgb(66,53,53); fill-rule: nonzero; opacity: 1;" vector-effect="non-scaling-stroke"  transform=" translate(-256, -74.14)" d="M 3.332 115.629 L 3.332 58.648 L 74.476 58.648 L 74.476 55.315000000000005 L 3.332 55.315000000000005 L 3.332 3.332 L 78.97399999999999 3.332 L 78.97399999999999 0 L 0 0 L 0 118.961 L 79.64 118.961 L 79.64 115.629 L 3.333 115.629 z M 143.787 33.322 L 114.29700000000001 72.143 L 85.47200000000001 33.323 L 81.14 33.323 L 112.297 74.643 L 78.14 118.96 L 82.139 118.96 L 114.29499999999999 77.13999999999999 L 146.618 118.95999999999998 L 150.783 118.95999999999998 L 116.46099999999998 74.64099999999998 L 147.784 33.32099999999998 L 143.786 33.32099999999998 z M 160.781 148.285 L 160.781 94.97 L 161.114 94.97 C 163.114 102.745 167.05700000000002 108.993 172.94400000000002 113.714 C 178.83100000000002 118.434 186.32800000000003 120.795 195.436 120.795 C 201.323 120.795 206.544 119.601 211.098 117.21300000000001 C 215.65200000000002 114.82500000000002 219.45600000000002 111.57600000000001 222.51100000000002 107.46600000000001 C 225.56500000000003 103.35600000000001 227.89800000000002 98.58000000000001 229.50900000000001 93.137 C 231.11900000000003 87.695 231.925 81.974 231.925 75.977 C 231.925 69.534 231.091 63.59100000000001 229.425 58.149 C 227.75900000000001 52.706 225.34300000000002 47.985 222.178 43.987 C 219.012 39.988 215.18 36.877 210.68099999999998 34.657000000000004 C 206.183 32.435 201.10099999999997 31.324000000000005 195.43599999999998 31.324000000000005 C 191.10399999999998 31.324000000000005 187.07799999999997 31.963000000000005 183.35699999999997 33.24 C 179.63599999999997 34.518 176.33199999999997 36.322 173.44399999999996 38.655 C 170.539085512803 41.005926354447446 168.01055687624876 43.787038072994115 165.94599999999997 46.90199999999999 C 163.83599999999996 50.068 162.22499999999997 53.539 161.11399999999998 57.316 L 160.78099999999998 57.316 L 160.78099999999998 33.322 L 157.44899999999998 33.322 L 157.44899999999998 148.285 L 160.78099999999998 148.285 z M 195.436 117.628 C 184.996 117.628 176.609 114.046 170.27800000000002 106.882 C 163.94700000000003 99.718 160.781 89.415 160.781 75.97500000000001 C 160.781 70.421 161.559 65.14500000000001 163.114 60.147000000000006 C 164.669 55.14900000000001 166.918 50.76100000000001 169.861 46.98500000000001 C 172.80499999999998 43.208000000000006 176.44299999999998 40.209 180.774 37.98800000000001 C 185.106 35.766000000000005 189.994 34.65500000000001 195.436 34.65500000000001 C 200.99 34.65500000000001 205.85 35.766000000000005 210.01500000000001 37.98800000000001 C 214.18 40.209 217.62400000000002 43.236000000000004 220.34500000000003 47.068000000000005 C 223.06600000000003 50.900000000000006 225.12100000000004 55.288000000000004 226.51000000000002 60.230000000000004 C 227.89800000000002 65.173 228.592 70.421 228.592 75.97500000000001 C 228.592 80.974 227.954 85.94500000000001 226.67600000000002 90.88700000000001 C 225.39900000000003 95.83000000000001 223.42700000000002 100.27300000000001 220.76100000000002 104.21700000000001 C 218.09600000000003 108.15900000000002 214.681 111.38000000000001 210.51500000000001 113.88000000000001 C 206.34900000000002 116.379 201.323 117.62800000000001 195.436 117.62800000000001 z M 250.252 118.961 L 250.252 70.477 C 250.252 65.812 250.918 61.257000000000005 252.252 56.815000000000005 C 253.584 52.37200000000001 255.639 48.456 258.416 45.069 C 261.193 41.681000000000004 264.719 39.015 268.996 37.071000000000005 C 273.272 35.127 278.354 34.322 284.241 34.65500000000001 L 284.241 31.323000000000008 C 279.131 31.213000000000008 274.661 31.767000000000007 270.829 32.989000000000004 C 266.996 34.211000000000006 263.692 35.877 260.915 37.98800000000001 C 258.13800000000003 40.098000000000006 255.91700000000003 42.56900000000001 254.25100000000003 45.40200000000001 C 252.5862513463662 48.23050084138232 251.35077583826916 51.29054383470502 250.58500000000004 54.48200000000001 L 250.25200000000004 54.482000000000006 L 250.25200000000004 33.322 L 246.92000000000004 33.322 L 246.92000000000004 118.962 L 250.25200000000004 118.962 z M 288.406 76.80799999999999 L 360.049 76.80799999999999 C 360.272 70.92099999999999 359.68899999999996 65.25699999999999 358.29999999999995 59.81399999999999 C 356.912 54.370999999999995 354.68999999999994 49.538999999999994 351.63599999999997 45.318999999999996 C 348.58099999999996 41.098 344.638 37.709999999999994 339.806 35.154999999999994 C 334.974 32.599999999999994 329.226 31.322999999999993 322.562 31.322999999999993 C 317.785 31.322999999999993 313.12 32.32299999999999 308.56600000000003 34.32299999999999 C 304.01200000000006 36.321999999999996 300.01300000000003 39.236999999999995 296.57000000000005 43.068999999999996 C 293.12700000000007 46.900999999999996 290.35 51.593999999999994 288.24000000000007 57.148999999999994 C 286.13000000000005 62.70199999999999 285.07400000000007 69.03299999999999 285.07400000000007 76.142 C 285.07400000000007 82.473 285.79600000000005 88.38799999999999 287.24000000000007 93.886 C 288.6840000000001 99.384 290.9050000000001 104.161 293.90400000000005 108.215 C 296.90400000000005 112.269 300.76400000000007 115.40700000000001 305.48400000000004 117.628 C 310.20400000000006 119.85 315.89700000000005 120.905 322.562 120.794 C 332.336 120.794 340.55600000000004 118.044 347.22 112.547 C 353.88500000000005 107.048 357.82800000000003 99.301 359.05 89.304 L 355.718 89.304 C 354.274 98.74600000000001 350.58000000000004 105.827 344.63800000000003 110.547 C 338.69500000000005 115.268 331.22600000000006 117.628 322.228 117.628 C 316.119 117.628 310.954 116.573 306.733 114.463 C 302.513 112.353 299.069 109.464 296.403 105.79899999999999 C 293.738 102.133 291.766 97.829 290.48900000000003 92.886 C 289.211 87.94399999999999 288.51700000000005 82.584 288.406 76.80799999999999 z M 356.717 73.476 L 288.407 73.476 C 288.739 67.478 289.84999999999997 62.091 291.738 57.315 C 293.627 52.538 296.098 48.455999999999996 299.153 45.068999999999996 C 302.207 41.681 305.762 39.099 309.81600000000003 37.321 C 313.87 35.544 318.23 34.655 322.89500000000004 34.655 C 328.449 34.655 333.33500000000004 35.683 337.557 37.738 C 341.77700000000004 39.793 345.30400000000003 42.598 348.137 46.152 C 350.969 49.706 353.107 53.844 354.551 58.564 C 355.995 63.285 356.717 68.256 356.717 73.476 z M 429.19399999999996 58.647999999999996 L 432.52599999999995 58.647999999999996 C 432.52599999999995 49.095 429.74899999999997 42.15299999999999 424.19599999999997 37.821 C 418.64099999999996 33.489 411.08799999999997 31.322999999999997 401.53599999999994 31.322999999999997 C 396.20399999999995 31.322999999999997 391.70599999999996 31.99 388.03999999999996 33.32299999999999 C 384.37499999999994 34.654999999999994 381.376 36.376999999999995 379.04299999999995 38.486999999999995 C 376.71099999999996 40.596999999999994 375.04499999999996 42.92999999999999 374.04499999999996 45.48499999999999 C 373.04499999999996 48.03999999999999 372.54499999999996 50.483999999999995 372.54499999999996 52.815999999999995 C 372.54499999999996 57.480999999999995 373.378 61.202 375.04499999999996 63.979 C 376.71099999999996 66.756 379.32099999999997 68.922 382.87499999999994 70.477 C 385.31899999999996 71.587 388.09499999999997 72.587 391.20599999999996 73.477 C 394.316 74.36500000000001 397.926 75.309 402.03599999999994 76.308 C 405.70099999999996 77.19800000000001 409.3109999999999 78.08600000000001 412.86599999999993 78.974 C 416.4199999999999 79.863 419.55799999999994 81.057 422.27899999999994 82.556 C 425.0009999999999 84.056 427.2219999999999 85.972 428.94399999999996 88.30499999999999 C 430.66499999999996 90.63699999999999 431.52599999999995 93.692 431.52599999999995 97.46799999999999 C 431.52599999999995 101.13399999999999 430.66599999999994 104.24399999999999 428.94399999999996 106.79799999999999 C 427.23664872307023 109.33967993524672 424.98958095834803 111.47338704081564 422.36299999999994 113.04699999999998 C 419.69699999999995 114.65699999999998 416.72499999999997 115.82299999999998 413.44899999999996 116.54499999999999 C 410.17199999999997 117.26699999999998 406.9789999999999 117.62799999999999 403.86899999999997 117.62799999999999 C 393.76099999999997 117.62799999999999 386.013 115.37899999999999 380.626 110.88099999999999 C 375.239 106.38199999999999 372.546 99.30099999999999 372.546 89.63699999999999 L 369.21299999999997 89.63699999999999 C 369.21299999999997 100.41199999999999 372.12899999999996 108.29799999999999 377.96 113.29699999999998 C 383.792 118.29499999999999 392.428 120.79399999999998 403.86899999999997 120.79399999999998 C 407.534 120.79399999999998 411.227 120.37699999999998 414.94899999999996 119.54399999999998 C 418.669 118.71099999999998 422.00199999999995 117.35099999999998 424.94499999999994 115.46199999999999 C 427.86302594198685 113.59977745164699 430.3140975524195 111.0919110495711 432.1089999999999 108.132 C 433.94199999999995 105.13199999999999 434.8589999999999 101.46699999999998 434.8589999999999 97.13499999999999 C 434.8589999999999 93.02499999999999 434.05299999999994 89.69299999999998 432.4429999999999 87.13799999999999 C 430.83199999999994 84.58399999999999 428.7219999999999 82.47299999999998 426.11099999999993 80.80699999999999 C 423.5009999999999 79.14099999999999 420.55799999999994 77.83599999999998 417.28099999999995 76.89199999999998 C 413.98555277581914 75.94241511413652 410.6807219309008 75.02570290680099 407.367 74.1420000000001 C 403.288877791581 73.07205257856344 399.206850411473 72.01704550212726 395.12099999999884 70.97700000000002 C 391.623 70.08799999999998 388.37399999999997 69.03299999999997 385.375 67.81099999999998 C 382.487 66.58899999999998 380.182 64.83999999999997 378.46 62.56299999999998 C 376.738 60.28599999999998 375.878 57.03699999999998 375.878 52.81599999999998 C 375.878 52.03899999999998 376.09999999999997 50.649999999999984 376.544 48.65099999999998 C 376.988 46.65099999999998 378.044 44.62399999999998 379.71 42.56899999999998 C 381.376 40.51499999999998 383.93 38.68199999999998 387.37399999999997 37.070999999999984 C 390.81699999999995 35.460999999999984 395.53799999999995 34.65499999999999 401.53599999999994 34.65499999999999 C 405.64599999999996 34.65499999999999 409.39399999999995 35.09999999999999 412.7819999999999 35.987999999999985 C 416.1699999999999 36.87699999999999 419.0859999999999 38.292999999999985 421.52899999999994 40.23699999999999 C 423.97299999999996 42.18099999999999 425.86099999999993 44.65199999999999 427.19399999999996 47.65099999999999 C 428.527 50.65099999999999 429.19399999999996 54.31599999999999 429.19399999999996 58.64799999999999 z M 506.335 58.647999999999996 L 509.667 58.647999999999996 C 509.667 49.095 506.89099999999996 42.15299999999999 501.337 37.821 C 495.783 33.489 488.23 31.322999999999997 478.67699999999996 31.322999999999997 C 473.34599999999995 31.322999999999997 468.847 31.99 465.18199999999996 33.32299999999999 C 461.51599999999996 34.654999999999994 458.51699999999994 36.376999999999995 456.18499999999995 38.486999999999995 C 453.8519999999999 40.596999999999994 452.1859999999999 42.92999999999999 451.1859999999999 45.48499999999999 C 450.1859999999999 48.03999999999999 449.6869999999999 50.483999999999995 449.6869999999999 52.815999999999995 C 449.6869999999999 57.480999999999995 450.5199999999999 61.202 452.1869999999999 63.979 C 453.8519999999999 66.756 456.4629999999999 68.922 460.0169999999999 70.477 C 462.4609999999999 71.587 465.2369999999999 72.587 468.34699999999987 73.477 C 471.4569999999999 74.36500000000001 475.0669999999999 75.309 479.17699999999985 76.308 C 482.84299999999985 77.19800000000001 486.45299999999986 78.08600000000001 490.00699999999983 78.974 C 493.56199999999984 79.863 496.69899999999984 81.057 499.4209999999998 82.556 C 502.1419999999998 84.056 504.3639999999998 85.972 506.0849999999998 88.30499999999999 C 507.8069999999998 90.63699999999999 508.66799999999984 93.692 508.66799999999984 97.46799999999999 C 508.66799999999984 101.13399999999999 507.80699999999985 104.24399999999999 506.0849999999998 106.79799999999999 C 504.3779359985614 109.33957091380466 502.1312184239945 111.47326971676341 499.5049999999998 113.04699999999998 C 496.83799999999985 114.65699999999998 493.86699999999985 115.82299999999998 490.5899999999998 116.54499999999999 C 487.3139999999998 117.26699999999998 484.1199999999998 117.62799999999999 481.0099999999998 117.62799999999999 C 470.9019999999998 117.62799999999999 463.1549999999998 115.37899999999999 457.7679999999998 110.88099999999999 C 452.3799999999998 106.38199999999999 449.6869999999998 99.30099999999999 449.6869999999998 89.63699999999999 L 446.3549999999998 89.63699999999999 C 446.3549999999998 100.41199999999999 449.2699999999998 108.29799999999999 455.1019999999998 113.29699999999998 C 460.9329999999998 118.29499999999999 469.5689999999998 120.79399999999998 481.0099999999998 120.79399999999998 C 484.6759999999998 120.79399999999998 488.3689999999998 120.37699999999998 492.0899999999998 119.54399999999998 C 495.80999999999983 118.71099999999998 499.1429999999998 117.35099999999998 502.0869999999998 115.46199999999999 C 505.00502594198673 113.59977745164699 507.45609755241946 111.0919110495711 509.2509999999998 108.132 C 511.08399999999983 105.13199999999999 511.99999999999983 101.46699999999998 511.99999999999983 97.13499999999999 C 511.99999999999983 93.02499999999999 511.1949999999998 89.69299999999998 509.58399999999983 87.13799999999999 C 507.9739999999998 84.58399999999999 505.8639999999998 82.47299999999998 503.2529999999998 80.80699999999999 C 500.6429999999998 79.14099999999999 497.69899999999984 77.83599999999998 494.42299999999983 76.89199999999998 C 491.12755293804076 75.94241454042911 487.8227220873953 75.02570233150493 484.50899999999933 74.14199999999992 C 480.4308778479257 73.07205236219096 476.34885046702493 72.01704528554936 472.2629999999989 70.97699999999956 C 468.76399999999984 70.08799999999998 465.5149999999999 69.03299999999997 462.51599999999985 67.81099999999998 C 459.6279999999999 66.58899999999998 457.32299999999987 64.83999999999997 455.60199999999986 62.56299999999998 C 453.8799999999999 60.28599999999998 453.01899999999983 57.03699999999998 453.01899999999983 52.81599999999998 C 453.01899999999983 52.03899999999998 453.2409999999998 50.649999999999984 453.6859999999998 48.65099999999998 C 454.1299999999998 46.65099999999998 455.1859999999998 44.62399999999998 456.85099999999983 42.56899999999998 C 458.5169999999998 40.51499999999998 461.07199999999983 38.68199999999998 464.5149999999998 37.070999999999984 C 467.95899999999983 35.460999999999984 472.6789999999998 34.65499999999999 478.6779999999998 34.65499999999999 C 482.78799999999984 34.65499999999999 486.53599999999983 35.09999999999999 489.9239999999998 35.987999999999985 C 493.3119999999998 36.87699999999999 496.2269999999998 38.292999999999985 498.6709999999998 40.23699999999999 C 501.11499999999984 42.18099999999999 503.0029999999998 44.65199999999999 504.33599999999984 47.65099999999999 C 505.66899999999987 50.65099999999999 506.33599999999984 54.31599999999999 506.33599999999984 58.64799999999999 z" stroke-linecap="round" />
</g>
</svg>